#N canvas 231 237 703 619 10;
#X obj 134 265 bird;
#X floatatom 203 318 4 0 0 0 - - - 0;
#X msg 117 128 set POINT;
#X msg 19 261 bang;
#X obj 188 267 comport 1 9600;
#X msg 28 128 set STREAM;
#X floatatom 51 399 7 0 0 0 - - - 0;
#X floatatom 71 430 7 0 0 0 - - - 0;
#X floatatom 92 464 7 0 0 0 - - - 0;
#X floatatom 113 403 7 0 0 0 - - - 0;
#X floatatom 133 432 7 0 0 0 - - - 0;
#X floatatom 155 465 7 0 0 0 - - - 0;
#X text 406 191 comment;
#X text 63 107 operationg mode;
#X floatatom 177 401 7 0 0 0 - - - 0;
#X floatatom 197 432 7 0 0 0 - - - 0;
#X floatatom 218 466 7 0 0 0 - - - 0;
#X floatatom 239 405 7 0 0 0 - - - 0;
#X floatatom 259 434 7 0 0 0 - - - 0;
#X floatatom 281 467 7 0 0 0 - - - 0;
#X msg 29 160 set RUN;
#X msg 97 162 set SLEEP;
#X text 11 241 data point;
#X obj 349 297 s birdctl;
#X obj 193 200 r birdctl;
#X obj 51 217 s birdctl;
#X obj 51 362 unpack 1 2 3 4 5 6 7 8 9 10 11 12;
#X text 479 108 3 floats;
#X text 479 135 9 floats;
#X text 480 159 3 floats;
#X text 483 185 4 floats;
#X text 481 207 6 floats;
#X text 480 237 12 floats;
#X text 488 262 7 floats;
#X text 353 86 DATA MODES;
#X text 350 324 SETTINGS;
#X msg 418 329 set AngleAlign1 0 0 0 0 0 0;
#X msg 417 358 set AngleAlign2 0 0 0;
#X msg 381 112 set ANGLES;
#X msg 381 134 set MATRIX;
#X msg 381 157 set POSITION;
#X msg 381 180 set QUARTER;
#X msg 384 209 set POSANG;
#X msg 380 235 set POSMAT;
#X msg 382 260 set POSQUARTER;
#X msg 420 384 set Hemisphere 0 0;
#X msg 420 407 set RefFrame1 0 0 0 0 0 0;
#X msg 423 432 set RefFrame2 0 0 0;
#X msg 420 456 set RepRate1;
#X msg 420 477 set RepRate2;
#X msg 420 499 set RepRate8;
#X msg 420 521 set RepRate32;
#X obj 341 521 s birdctl;
#X msg 195 224 verbose 1;
#X msg 196 245 verbose 0;
#X text 50 13 [bird] - interfacing the "Flock of Birds" by Ascension
Technology Corp., f 84;
#X connect 0 0 26 0;
#X connect 0 1 1 0;
#X connect 0 1 4 0;
#X connect 2 0 25 0;
#X connect 3 0 0 0;
#X connect 4 0 0 0;
#X connect 5 0 25 0;
#X connect 20 0 25 0;
#X connect 21 0 25 0;
#X connect 24 0 0 0;
#X connect 26 0 6 0;
#X connect 26 1 7 0;
#X connect 26 2 8 0;
#X connect 26 3 9 0;
#X connect 26 4 10 0;
#X connect 26 5 11 0;
#X connect 26 6 14 0;
#X connect 26 7 15 0;
#X connect 26 8 16 0;
#X connect 26 9 17 0;
#X connect 26 10 18 0;
#X connect 26 11 19 0;
#X connect 36 0 52 0;
#X connect 37 0 52 0;
#X connect 38 0 23 0;
#X connect 39 0 23 0;
#X connect 40 0 23 0;
#X connect 41 0 23 0;
#X connect 42 0 23 0;
#X connect 43 0 23 0;
#X connect 44 0 23 0;
#X connect 45 0 52 0;
#X connect 46 0 52 0;
#X connect 47 0 52 0;
#X connect 48 0 52 0;
#X connect 49 0 52 0;
#X connect 50 0 52 0;
#X connect 51 0 52 0;
#X connect 53 0 0 0;
#X connect 54 0 0 0;
